<svg width="520" height="117" viewBox="0 0 520 117" fill="none" xmlns="http://www.w3.org/2000/svg">
<g clip-path="url(#clip0_101_3)">
<path d="M42.6177 0.158542C22.6315 1.13072 8.7045 5.51682 5.56187 11.802L4.97406 12.9777V55.4597C4.97406 86.3885 5.04189 98.1901 5.22274 98.8007C5.85578 100.926 8.34275 103.232 12.0506 105.108L14.4245 106.307L14.7184 107.46C15.2384 109.675 17.9967 111.687 22.4506 113.135C29.0524 115.282 42.9567 116.549 53.8317 116.006C67.9622 115.305 76.8701 113.315 80.3744 110.082C81.5499 108.997 81.9344 108.364 82.1603 107.121C82.2961 106.329 82.4316 106.216 84.1953 105.403C87.7673 103.729 90.3899 101.491 91.4074 99.298C91.8822 98.2807 91.9047 97.8963 91.9726 90.1414L92.0405 82.0476L92.696 82.1831C93.6456 82.3866 96.8786 81.8893 98.6875 81.2563C100.835 80.5101 102.395 79.5381 104.362 77.7067C107.346 74.9258 109.246 71.3308 110.489 66.131L111.122 63.418V53.357C111.122 44.404 111.077 43.0926 110.693 41.3744C110.014 38.2542 109.223 35.9709 108.002 33.5744C107.03 31.7203 106.465 30.9517 104.792 29.2786C103.028 27.4925 102.44 27.063 100.383 26.0456C98.5292 25.1412 97.5344 24.8021 95.8614 24.5082C94.6856 24.3047 93.3518 24.2143 92.8995 24.2821L92.0629 24.4177L91.9726 18.6977L91.9047 13.0003L91.2943 11.8247C90.5934 10.5133 88.9203 8.74986 87.3604 7.68725C84.896 5.9916 80.0351 4.06985 75.0612 2.84898C66.4247 0.746369 53.108 -0.361461 42.6177 0.158542ZM59.6873 5.31335C61.7445 5.51682 64.6837 5.85595 66.244 6.10466C75.0612 7.48378 82.2961 10.1742 82.2961 12.096C82.2961 14.5377 71.7151 17.7482 59.8229 18.9238C54.4193 19.4438 42.4819 19.4438 37.0786 18.9238C26.7237 17.9064 17.7254 15.5325 15.148 13.1134C14.2889 12.2994 14.2889 11.8699 15.1706 11.056C18.2906 8.13944 29.7759 5.58465 42.8439 4.88378C45.9638 4.72551 56.0247 4.97422 59.6873 5.31335ZM95.9066 34.4561C98.7778 35.835 100.677 39.2942 101.423 44.5395C101.785 47.1397 101.853 58.6699 101.514 61.496C100.654 68.5275 97.4438 72.8004 93.216 72.5294L92.1309 72.4614L92.0629 53.3795C92.0178 38.2542 92.0629 34.2299 92.2891 34.0944C92.7412 33.7778 94.9797 34.0037 95.9066 34.4561Z" fill="#FFB400"/>
<path d="M36.2739 63.6613C35.1514 63.6613 34.1912 63.4239 33.3927 62.9491C32.5942 62.4743 31.9788 61.7998 31.5473 60.9259C31.1265 60.0517 30.9161 59.0105 30.9161 57.802C30.9161 56.8954 31.0348 56.0863 31.2722 55.374C31.5202 54.6509 31.871 54.0412 32.3244 53.5449C32.7883 53.0377 33.355 52.6492 34.0239 52.3794C34.6928 52.099 35.443 51.9585 36.2739 51.9585C36.9428 51.9585 37.5796 52.0557 38.1837 52.2498C38.7881 52.4333 39.3115 52.7084 39.7539 53.0754C39.8941 53.1832 39.9857 53.3075 40.029 53.4477C40.0829 53.5773 40.0882 53.7066 40.0452 53.8362C40.0128 53.9549 39.948 54.0574 39.8508 54.1437C39.7645 54.2194 39.6567 54.2571 39.5271 54.2571C39.3978 54.2571 39.252 54.2032 39.0903 54.0951C38.7018 53.7823 38.2756 53.5502 37.8114 53.3991C37.3475 53.248 36.8456 53.1726 36.306 53.1726C35.4536 53.1726 34.7308 53.3561 34.1373 53.7228C33.5438 54.0789 33.0958 54.6023 32.7936 55.293C32.4917 55.9834 32.3406 56.82 32.3406 57.802C32.3406 58.784 32.4917 59.6255 32.7936 60.3268C33.0958 61.0175 33.5438 61.5462 34.1373 61.9132C34.7308 62.2693 35.4536 62.4472 36.306 62.4472C36.835 62.4472 37.3366 62.3718 37.8114 62.2207C38.2862 62.059 38.7233 61.8216 39.1224 61.5085C39.2844 61.4007 39.4302 61.3521 39.5595 61.363C39.6891 61.363 39.7969 61.4007 39.8832 61.4761C39.9695 61.5518 40.029 61.6487 40.0615 61.7674C40.1044 61.8861 40.1044 62.0104 40.0615 62.1397C40.029 62.2693 39.948 62.3827 39.8184 62.4796C39.3654 62.8681 38.8311 63.165 38.2161 63.37C37.6117 63.5641 36.9643 63.6613 36.2739 63.6613Z" fill="white"/>
<path d="M57.544 63.5152C57.3066 63.5152 57.1231 63.456 56.9934 63.3373C56.8747 63.2077 56.8156 63.0242 56.8156 62.7868V52.8324C56.8156 52.595 56.8747 52.4168 56.9934 52.2981C57.1231 52.1688 57.3066 52.104 57.544 52.104H60.6679C62.5132 52.104 63.9376 52.5894 64.9411 53.5608C65.9447 54.5319 66.4466 55.9454 66.4466 57.8017C66.4466 58.7295 66.317 59.5498 66.0581 60.262C65.8098 60.9633 65.4375 61.5568 64.9411 62.0425C64.4448 62.5279 63.8404 62.8949 63.1282 63.1429C62.416 63.3912 61.596 63.5152 60.6679 63.5152H57.544ZM58.1428 62.3824H60.5707C61.3262 62.3824 61.9789 62.2852 62.5294 62.0908C63.0905 61.8967 63.5544 61.6107 63.9214 61.2331C64.299 60.8555 64.5794 60.3807 64.7629 59.8087C64.9464 59.2261 65.0384 58.5569 65.0384 57.8017C65.0384 56.2801 64.666 55.1416 63.9214 54.3861C63.1768 53.62 62.0599 53.2371 60.5707 53.2371H58.1428V62.3824Z" fill="white"/>
<path d="M26.3317 47.9028L16.1403 58.0943L26.3317 68.2855" stroke="white" stroke-width="1.49874" stroke-linecap="round" stroke-linejoin="round"/>
<path d="M71.294 68.2855L81.4855 58.094L71.294 47.9028" stroke="white" stroke-width="1.49874" stroke-linecap="round" stroke-linejoin="round"/>
<path d="M51.8105 44.606L44.6165 71.5833" stroke="white" stroke-width="1.49874" stroke-linecap="round" stroke-linejoin="round"/>
</g>
<path d="M174.873 73.7102C169.244 73.7102 164.431 72.5529 160.433 70.2382C156.435 67.9236 153.358 64.6358 151.201 60.3748C149.097 56.0612 148.045 50.9848 148.045 45.1457C148.045 40.7795 148.65 36.8604 149.86 33.3885C151.069 29.864 152.805 26.8655 155.067 24.393C157.382 21.868 160.196 19.9479 163.51 18.6328C166.877 17.3177 170.665 16.6601 174.873 16.6601C177.977 16.6601 180.949 17.081 183.79 17.9226C186.683 18.7643 189.182 19.9742 191.286 21.5524C192.18 22.131 192.759 22.8412 193.022 23.6829C193.337 24.472 193.39 25.2347 193.18 25.9712C193.022 26.7077 192.68 27.3389 192.154 27.865C191.628 28.3384 190.944 28.6014 190.102 28.654C189.313 28.7067 188.445 28.4173 187.498 27.7861C185.762 26.4709 183.842 25.4978 181.738 24.8665C179.634 24.2352 177.424 23.9196 175.11 23.9196C171.112 23.9196 167.745 24.7613 165.01 26.4446C162.274 28.0754 160.196 30.4689 158.776 33.6252C157.356 36.7815 156.646 40.6217 156.646 45.1457C156.646 49.6697 157.356 53.5362 158.776 56.7451C160.196 59.9014 162.274 62.3212 165.01 64.0046C167.745 65.6353 171.112 66.4507 175.11 66.4507C177.424 66.4507 179.634 66.1351 181.738 65.5038C183.895 64.8199 185.92 63.8204 187.814 62.5053C188.761 61.9267 189.603 61.6636 190.339 61.7162C191.128 61.7688 191.786 62.0319 192.312 62.5053C192.838 62.9788 193.18 63.5837 193.337 64.3202C193.548 65.0041 193.522 65.7405 193.259 66.5296C193.048 67.2661 192.548 67.8973 191.759 68.4234C189.603 70.1593 187.051 71.4745 184.105 72.3687C181.159 73.263 178.082 73.7102 174.873 73.7102ZM213.394 73.7102C210.711 73.7102 208.291 73.1841 206.135 72.132C204.03 71.0799 202.373 69.6596 201.163 67.871C199.954 66.0825 199.349 64.0572 199.349 61.7952C199.349 58.9545 200.059 56.7188 201.479 55.088C202.952 53.4047 205.346 52.2211 208.66 51.5372C212.026 50.8007 216.55 50.4325 222.232 50.4325H225.94V55.3247H222.311C218.523 55.3247 215.525 55.5089 213.315 55.8771C211.106 56.2453 209.528 56.8766 208.581 57.7709C207.687 58.6126 207.239 59.7962 207.239 61.3217C207.239 63.3207 207.923 64.9514 209.291 66.214C210.659 67.4239 212.552 68.0288 214.972 68.0288C216.919 68.0288 218.628 67.5817 220.101 66.6874C221.574 65.7405 222.732 64.478 223.573 62.8999C224.467 61.3217 224.915 59.5068 224.915 57.4552V48.3809C224.915 45.3824 224.283 43.2256 223.021 41.9105C221.758 40.5954 219.68 39.9378 216.787 39.9378C215.104 39.9378 213.342 40.1482 211.5 40.5691C209.712 40.9899 207.844 41.7001 205.898 42.6996C205.004 43.1204 204.241 43.2519 203.61 43.0941C202.978 42.9363 202.479 42.5944 202.11 42.0683C201.742 41.4896 201.532 40.8847 201.479 40.2534C201.479 39.5696 201.637 38.912 201.953 38.2807C202.321 37.6495 202.926 37.176 203.767 36.8604C206.082 35.7557 208.37 34.9666 210.632 34.4932C212.894 34.0197 215.025 33.783 217.024 33.783C220.548 33.783 223.442 34.3354 225.704 35.4401C228.018 36.5448 229.728 38.2281 230.833 40.4902C231.937 42.7522 232.49 45.6717 232.49 49.2489V69.5281C232.49 70.7906 232.174 71.7901 231.543 72.5266C230.912 73.2104 229.991 73.5524 228.781 73.5524C227.624 73.5524 226.703 73.2104 226.019 72.5266C225.335 71.7901 224.994 70.7906 224.994 69.5281V64.3991H225.704C225.283 66.3455 224.494 68.0288 223.336 69.4492C222.232 70.8169 220.838 71.869 219.154 72.6055C217.471 73.3419 215.551 73.7102 213.394 73.7102ZM247.412 73.5524C246.149 73.5524 245.176 73.2104 244.492 72.5266C243.808 71.7901 243.466 70.7906 243.466 69.5281V37.9651C243.466 36.65 243.808 35.6505 244.492 34.9666C245.176 34.2828 246.123 33.9408 247.333 33.9408C248.595 33.9408 249.542 34.2828 250.174 34.9666C250.857 35.6505 251.199 36.65 251.199 37.9651V44.1199L250.331 42.6996C251.489 39.7537 253.304 37.5443 255.776 36.0713C258.248 34.5458 261.089 33.783 264.298 33.783C267.349 33.783 269.874 34.3617 271.873 35.519C273.925 36.6237 275.45 38.3334 276.45 40.648C277.449 42.91 277.949 45.777 277.949 49.2489V69.5281C277.949 70.7906 277.607 71.7901 276.923 72.5266C276.239 73.2104 275.266 73.5524 274.004 73.5524C272.689 73.5524 271.689 73.2104 271.005 72.5266C270.321 71.7901 269.979 70.7906 269.979 69.5281V49.7223C269.979 46.4082 269.322 43.9884 268.007 42.4628C266.744 40.9373 264.745 40.1745 262.01 40.1745C258.801 40.1745 256.223 41.174 254.277 43.173C252.383 45.172 251.436 47.8548 251.436 51.2216V69.5281C251.436 72.2109 250.095 73.5524 247.412 73.5524ZM305.343 73.7102C302.187 73.7102 299.531 73.1578 297.374 72.0531C295.217 70.9484 293.613 69.3177 292.56 67.1609C291.508 65.0041 290.982 62.3738 290.982 59.2701V40.648H286.248C285.196 40.648 284.38 40.3849 283.802 39.8589C283.223 39.2802 282.934 38.5175 282.934 37.5706C282.934 36.5711 283.223 35.8083 283.802 35.2823C284.38 34.7562 285.196 34.4932 286.248 34.4932H290.982V26.3657C290.982 25.0506 291.324 24.0511 292.008 23.3673C292.745 22.6834 293.744 22.3415 295.007 22.3415C296.269 22.3415 297.242 22.6834 297.926 23.3673C298.61 24.0511 298.952 25.0506 298.952 26.3657V34.4932H308.184C309.236 34.4932 310.052 34.7562 310.63 35.2823C311.209 35.8083 311.498 36.5711 311.498 37.5706C311.498 38.5175 311.209 39.2802 310.63 39.8589C310.052 40.3849 309.236 40.648 308.184 40.648H298.952V58.6389C298.952 61.4269 299.531 63.5311 300.688 64.9514C301.898 66.3718 303.844 67.0819 306.527 67.0819C307.474 67.0819 308.289 67.003 308.973 66.8452C309.71 66.6348 310.315 66.5033 310.788 66.4507C311.367 66.4507 311.84 66.6611 312.208 67.0819C312.577 67.4502 312.761 68.1866 312.761 69.2914C312.761 70.0804 312.603 70.8169 312.287 71.5008C312.024 72.1846 311.525 72.6318 310.788 72.8422C310.157 73.0526 309.289 73.2367 308.184 73.3945C307.132 73.605 306.185 73.7102 305.343 73.7102ZM334.093 73.7102C330.201 73.7102 326.834 72.8948 323.993 71.264C321.205 69.6333 319.022 67.3187 317.444 64.3202C315.866 61.3217 315.077 57.7972 315.077 53.7466C315.077 50.6429 315.524 47.8811 316.418 45.4613C317.312 43.0415 318.575 40.9636 320.206 39.2276C321.889 37.4391 323.888 36.0976 326.203 35.2034C328.57 34.2565 331.2 33.783 334.093 33.783C337.934 33.783 341.248 34.5984 344.036 36.2292C346.876 37.8599 349.086 40.1745 350.664 43.173C352.242 46.1189 353.031 49.6434 353.031 53.7466C353.031 56.7977 352.584 59.5594 351.69 62.0319C350.796 64.5043 349.507 66.6085 347.823 68.3445C346.193 70.0804 344.194 71.4219 341.826 72.3687C339.512 73.263 336.934 73.7102 334.093 73.7102ZM334.093 67.5554C336.25 67.5554 338.144 67.0293 339.775 65.9772C341.406 64.9251 342.668 63.3733 343.562 61.3217C344.509 59.2701 344.983 56.7451 344.983 53.7466C344.983 49.2226 343.983 45.8033 341.984 43.4886C339.985 41.174 337.355 40.0167 334.093 40.0167C331.884 40.0167 329.964 40.5428 328.333 41.5949C326.702 42.5944 325.414 44.1199 324.467 46.1715C323.572 48.2231 323.125 50.7481 323.125 53.7466C323.125 58.218 324.125 61.6373 326.124 64.0046C328.123 66.3718 330.779 67.5554 334.093 67.5554ZM388.074 73C386.654 73 385.549 72.6318 384.76 71.8953C384.024 71.1062 383.655 70.0015 383.655 68.5812V21.7891C383.655 20.3688 384.024 19.2904 384.76 18.5539C385.549 17.7648 386.654 17.3703 388.074 17.3703H403.303C412.457 17.3703 419.506 19.7638 424.45 24.5509C429.448 29.2853 431.947 36.1502 431.947 45.1457C431.947 49.6171 431.315 53.5888 430.053 57.0607C428.79 60.5326 426.923 63.4522 424.45 65.8194C422.031 68.134 419.058 69.9226 415.534 71.1851C412.009 72.395 407.932 73 403.303 73H388.074ZM391.862 66.1351H402.83C406.302 66.1351 409.3 65.7142 411.825 64.8725C414.403 63.9783 416.56 62.6631 418.296 60.9272C420.032 59.1912 421.32 57.0081 422.162 54.3779C423.004 51.7476 423.425 48.6702 423.425 45.1457C423.425 38.1492 421.689 32.915 418.217 29.4431C414.797 25.9712 409.668 24.2352 402.83 24.2352H391.862V66.1351ZM460.115 73.7102C455.906 73.7102 452.277 72.9211 449.226 71.3429C446.227 69.7122 443.886 67.4239 442.203 64.478C440.572 61.4795 439.757 57.9287 439.757 53.8255C439.757 49.8275 440.572 46.3293 442.203 43.3308C443.833 40.3323 446.069 37.9914 448.91 36.3081C451.751 34.6247 454.986 33.783 458.615 33.783C461.298 33.783 463.692 34.2302 465.796 35.1245C467.9 35.9661 469.689 37.2287 471.162 38.912C472.687 40.5428 473.818 42.5417 474.555 44.909C475.344 47.2762 475.738 49.9327 475.738 52.8786C475.738 53.7729 475.475 54.4568 474.949 54.9302C474.423 55.351 473.634 55.5615 472.582 55.5615H446.069V50.6692H470.373L469.031 51.7739C469.031 49.1437 468.637 46.908 467.848 45.0668C467.111 43.2256 465.98 41.8316 464.455 40.8847C462.982 39.8852 461.141 39.3855 458.931 39.3855C456.459 39.3855 454.354 39.9641 452.619 41.1214C450.935 42.2787 449.646 43.8832 448.752 45.9348C447.858 47.9864 447.411 50.3799 447.411 53.1153V53.5888C447.411 58.218 448.489 61.7162 450.646 64.0835C452.855 66.3981 456.038 67.5554 460.194 67.5554C461.772 67.5554 463.429 67.345 465.165 66.9241C466.953 66.5033 468.637 65.7931 470.215 64.7936C471.109 64.2676 471.898 64.0309 472.582 64.0835C473.319 64.1361 473.897 64.3728 474.318 64.7936C474.791 65.2145 475.081 65.7405 475.186 66.3718C475.291 67.003 475.186 67.6606 474.87 68.3445C474.555 68.9757 474.002 69.5544 473.213 70.0804C471.425 71.2903 469.347 72.2109 466.98 72.8422C464.612 73.4208 462.324 73.7102 460.115 73.7102ZM498.801 73.5524C497.696 73.5524 496.723 73.263 495.881 72.6844C495.092 72.1057 494.435 71.2114 493.909 70.0015L480.731 39.3855C480.31 38.4386 480.152 37.5443 480.258 36.7026C480.363 35.8609 480.757 35.2034 481.441 34.7299C482.125 34.2039 483.046 33.9408 484.203 33.9408C485.203 33.9408 485.992 34.1776 486.57 34.651C487.149 35.1245 487.675 35.9398 488.148 37.0971L500.063 66.4507H497.854L510.006 37.0971C510.479 35.9398 511.005 35.1245 511.584 34.651C512.215 34.1776 513.083 33.9408 514.188 33.9408C515.135 33.9408 515.871 34.2039 516.397 34.7299C516.976 35.2034 517.318 35.8609 517.423 36.7026C517.581 37.4917 517.449 38.3597 517.029 39.3065L503.693 70.0015C503.22 71.2114 502.562 72.1057 501.72 72.6844C500.879 73.263 499.906 73.5524 498.801 73.5524Z" fill="#FFB400"/>
<defs>
<clipPath id="clip0_101_3">
<rect width="116.209" height="116.209" fill="white"/>
</clipPath>
</defs>
</svg>
